<svg width="32" height="33" viewBox="0 0 32 33" fill="none" xmlns="http://www.w3.org/2000/svg">
<g clip-path="url(#clip0_6001_120)">
<path d="M6.66669 20.625H5.33335C4.62611 20.625 3.94783 20.3353 3.44774 19.8195C2.94764 19.3038 2.66669 18.6043 2.66669 17.875V5.5C2.66669 4.77065 2.94764 4.07118 3.44774 3.55546C3.94783 3.03973 4.62611 2.75 5.33335 2.75H17.3334C18.0406 2.75 18.7189 3.03973 19.219 3.55546C19.7191 4.07118 20 4.77065 20 5.5V6.875M14.6667 12.375H26.6667C28.1394 12.375 29.3334 13.6062 29.3334 15.125V27.5C29.3334 29.0188 28.1394 30.25 26.6667 30.25H14.6667C13.1939 30.25 12 29.0188 12 27.5V15.125C12 13.6062 13.1939 12.375 14.6667 12.375Z" stroke="#D9D9D9" stroke-width="4" stroke-linecap="round" stroke-linejoin="round"/>
</g>
<defs>
<clipPath id="clip0_6001_120">
<rect width="32" height="33" fill="white"/>
</clipPath>
</defs>
</svg>
